<mxfile host="app.diagrams.net" modified="2021-11-07T08:13:09.447Z" agent="5.0 (Macintosh; Intel Mac OS X 10_15_7) AppleWebKit/537.36 (KHTML, like Gecko) Chrome/95.0.4638.69 Safari/537.36" etag="g2iNqqD0epy8aVjGAB8e" version="14.1.1" type="github">
  <diagram id="6a731a19-8d31-9384-78a2-239565b7b9f0" name="Page-1">
    <mxGraphModel dx="2723" dy="784" grid="1" gridSize="10" guides="1" tooltips="1" connect="1" arrows="1" fold="1" page="1" pageScale="1" pageWidth="1169" pageHeight="827" background="none" math="0" shadow="0">
      <root>
        <mxCell id="0" />
        <mxCell id="1" parent="0" />
        <mxCell id="Q4df0H-JlEwPYiJTYYAv-1813" value="" style="rounded=0;whiteSpace=wrap;html=1;strokeColor=#000000;gradientColor=none;fontColor=#333333;fillColor=none;" parent="1" vertex="1">
          <mxGeometry x="-50" y="180" width="470" height="100" as="geometry" />
        </mxCell>
        <mxCell id="1745" value="" style="edgeStyle=none;rounded=0;jumpStyle=none;html=1;shadow=0;labelBackgroundColor=none;startArrow=none;startFill=0;endArrow=classic;endFill=1;jettySize=auto;orthogonalLoop=1;strokeColor=#2F5B7C;strokeWidth=3;fontFamily=Helvetica;fontSize=16;fontColor=#23445D;spacing=5;" parent="1" source="1749" target="1764" edge="1">
          <mxGeometry relative="1" as="geometry" />
        </mxCell>
        <mxCell id="1746" value="" style="edgeStyle=none;rounded=0;jumpStyle=none;html=1;shadow=0;labelBackgroundColor=none;startArrow=none;startFill=0;endArrow=classic;endFill=1;jettySize=auto;orthogonalLoop=1;strokeColor=#2F5B7C;strokeWidth=3;fontFamily=Helvetica;fontSize=16;fontColor=#23445D;spacing=5;" parent="1" source="1749" target="1771" edge="1">
          <mxGeometry relative="1" as="geometry" />
        </mxCell>
        <mxCell id="1747" value="" style="edgeStyle=none;rounded=0;jumpStyle=none;html=1;shadow=0;labelBackgroundColor=none;startArrow=none;startFill=0;endArrow=classic;endFill=1;jettySize=auto;orthogonalLoop=1;strokeColor=#2F5B7C;strokeWidth=3;fontFamily=Helvetica;fontSize=16;fontColor=#23445D;spacing=5;" parent="1" source="1749" target="1760" edge="1">
          <mxGeometry relative="1" as="geometry" />
        </mxCell>
        <mxCell id="1748" value="" style="edgeStyle=none;rounded=0;jumpStyle=none;html=1;shadow=0;labelBackgroundColor=none;startArrow=none;startFill=0;endArrow=classic;endFill=1;jettySize=auto;orthogonalLoop=1;strokeColor=#2F5B7C;strokeWidth=3;fontFamily=Helvetica;fontSize=16;fontColor=#23445D;spacing=5;" parent="1" source="1749" target="1753" edge="1">
          <mxGeometry relative="1" as="geometry" />
        </mxCell>
        <mxCell id="1749" value="トレーニング" style="rounded=1;whiteSpace=wrap;html=1;shadow=0;labelBackgroundColor=none;strokeColor=none;strokeWidth=3;fillColor=#2F5B7C;fontFamily=Helvetica;fontSize=16;fontColor=#FFFFFF;align=center;fontStyle=1;spacing=5;arcSize=7;perimeterSpacing=2;" parent="1" vertex="1">
          <mxGeometry x="495" y="380.5" width="150" height="70" as="geometry" />
        </mxCell>
        <mxCell id="1750" value="" style="edgeStyle=none;rounded=1;jumpStyle=none;html=1;shadow=0;labelBackgroundColor=none;startArrow=none;startFill=0;jettySize=auto;orthogonalLoop=1;strokeWidth=3;fontFamily=Helvetica;fontSize=14;fontColor=#FFFFFF;spacing=5;fontStyle=1;fillColor=#b0e3e6;strokeColor=#1A1A1A;" parent="1" source="1753" target="1756" edge="1">
          <mxGeometry relative="1" as="geometry" />
        </mxCell>
        <mxCell id="1752" value="" style="edgeStyle=none;rounded=1;jumpStyle=none;html=1;shadow=0;labelBackgroundColor=none;startArrow=none;startFill=0;jettySize=auto;orthogonalLoop=1;strokeWidth=3;fontFamily=Helvetica;fontSize=14;fontColor=#FFFFFF;spacing=5;fontStyle=1;fillColor=#b0e3e6;strokeColor=#1A1A1A;exitX=0;exitY=0.5;exitDx=0;exitDy=0;" parent="1" source="1753" target="1754" edge="1">
          <mxGeometry relative="1" as="geometry" />
        </mxCell>
        <mxCell id="1753" value="[サービス]&lt;br&gt;GitHub" style="rounded=1;whiteSpace=wrap;html=1;shadow=0;labelBackgroundColor=none;strokeColor=none;strokeWidth=3;fontFamily=Helvetica;fontSize=14;fontColor=#FFFFFF;align=center;spacing=5;fontStyle=1;arcSize=7;perimeterSpacing=2;fillColor=#6600CC;" parent="1" vertex="1">
          <mxGeometry x="215" y="385.5" width="150" height="60" as="geometry" />
        </mxCell>
        <mxCell id="1754" value="[開発手法]&lt;br&gt;Kanban Board" style="rounded=1;whiteSpace=wrap;html=1;shadow=0;labelBackgroundColor=none;strokeColor=none;strokeWidth=3;fontFamily=Helvetica;fontSize=14;fontColor=#FFFFFF;align=center;spacing=5;fontStyle=0;arcSize=7;perimeterSpacing=2;fillColor=#330066;" parent="1" vertex="1">
          <mxGeometry x="-20" y="385.5" width="150" height="60" as="geometry" />
        </mxCell>
        <mxCell id="1756" value="[ツール]&lt;br&gt;Git&lt;br&gt;(ソースコード管理)" style="rounded=1;whiteSpace=wrap;html=1;shadow=0;labelBackgroundColor=none;strokeColor=none;strokeWidth=3;fontFamily=Helvetica;fontSize=14;fontColor=#FFFFFF;align=center;spacing=5;fontStyle=0;arcSize=7;perimeterSpacing=2;fillColor=#330066;" parent="1" vertex="1">
          <mxGeometry x="215" y="680" width="150" height="60" as="geometry" />
        </mxCell>
        <mxCell id="1758" value="" style="edgeStyle=none;rounded=0;jumpStyle=none;html=1;shadow=0;labelBackgroundColor=none;startArrow=none;startFill=0;endArrow=classic;endFill=1;jettySize=auto;orthogonalLoop=1;strokeColor=#1699D3;strokeWidth=3;fontFamily=Helvetica;fontSize=14;fontColor=#FFFFFF;spacing=5;" parent="1" source="1760" target="1762" edge="1">
          <mxGeometry relative="1" as="geometry" />
        </mxCell>
        <mxCell id="1759" value="" style="edgeStyle=none;rounded=0;jumpStyle=none;html=1;shadow=0;labelBackgroundColor=none;startArrow=none;startFill=0;endArrow=classic;endFill=1;jettySize=auto;orthogonalLoop=1;strokeColor=#1699D3;strokeWidth=3;fontFamily=Helvetica;fontSize=14;fontColor=#FFFFFF;spacing=5;" parent="1" source="1760" target="1761" edge="1">
          <mxGeometry relative="1" as="geometry" />
        </mxCell>
        <mxCell id="1760" value="開発環境" style="rounded=1;whiteSpace=wrap;html=1;shadow=0;labelBackgroundColor=none;strokeColor=none;strokeWidth=3;fillColor=#1699d3;fontFamily=Helvetica;fontSize=14;fontColor=#FFFFFF;align=center;spacing=5;fontStyle=1;arcSize=7;perimeterSpacing=2;" parent="1" vertex="1">
          <mxGeometry x="495" y="570.5" width="150" height="60" as="geometry" />
        </mxCell>
        <mxCell id="Q4df0H-JlEwPYiJTYYAv-1794" style="edgeStyle=orthogonalEdgeStyle;rounded=0;orthogonalLoop=1;jettySize=auto;html=1;exitX=0;exitY=0.5;exitDx=0;exitDy=0;entryX=1;entryY=0.5;entryDx=0;entryDy=0;dashed=1;strokeColor=#330066;fontColor=#333333;" parent="1" source="1762" target="1756" edge="1">
          <mxGeometry relative="1" as="geometry" />
        </mxCell>
        <mxCell id="1764" value="[クラウド]&lt;br&gt;AWS" style="rounded=1;whiteSpace=wrap;html=1;shadow=0;labelBackgroundColor=none;strokeColor=none;strokeWidth=3;fillColor=#F08705;fontFamily=Helvetica;fontSize=14;fontColor=#FFFFFF;align=center;spacing=5;fontStyle=1;arcSize=7;perimeterSpacing=2;" parent="1" vertex="1">
          <mxGeometry x="495" y="200.5" width="150" height="60" as="geometry" />
        </mxCell>
        <mxCell id="Q4df0H-JlEwPYiJTYYAv-1801" style="edgeStyle=orthogonalEdgeStyle;rounded=0;orthogonalLoop=1;jettySize=auto;html=1;dashed=1;fontColor=#333333;strokeColor=#CC6600;" parent="1" source="1765" target="1767" edge="1">
          <mxGeometry relative="1" as="geometry" />
        </mxCell>
        <mxCell id="1765" value="[ツール]&lt;br&gt;CloudFormation&lt;br&gt;(リソースの自動管理)" style="rounded=1;whiteSpace=wrap;html=1;shadow=0;labelBackgroundColor=none;strokeColor=none;strokeWidth=3;fillColor=#f5af58;fontFamily=Helvetica;fontSize=14;fontColor=#FFFFFF;align=center;spacing=5;arcSize=7;perimeterSpacing=2;" parent="1" vertex="1">
          <mxGeometry x="495" y="70" width="150" height="60" as="geometry" />
        </mxCell>
        <mxCell id="1766" value="" style="edgeStyle=none;rounded=0;jumpStyle=none;html=1;shadow=0;labelBackgroundColor=none;startArrow=none;startFill=0;endArrow=classic;endFill=1;jettySize=auto;orthogonalLoop=1;strokeColor=#F08705;strokeWidth=3;fontFamily=Helvetica;fontSize=14;fontColor=#FFFFFF;spacing=5;" parent="1" source="1764" target="1765" edge="1">
          <mxGeometry relative="1" as="geometry" />
        </mxCell>
        <mxCell id="Q4df0H-JlEwPYiJTYYAv-1820" style="edgeStyle=orthogonalEdgeStyle;rounded=0;orthogonalLoop=1;jettySize=auto;html=1;entryX=0.5;entryY=0;entryDx=0;entryDy=0;dashed=1;fontColor=#333333;" parent="1" source="1767" target="Q4df0H-JlEwPYiJTYYAv-1797" edge="1">
          <mxGeometry relative="1" as="geometry" />
        </mxCell>
        <mxCell id="1767" value="[リソース]&lt;br&gt;*" style="rounded=1;whiteSpace=wrap;html=1;shadow=0;labelBackgroundColor=none;strokeColor=none;strokeWidth=3;fillColor=#f5af58;fontFamily=Helvetica;fontSize=14;fontColor=#FFFFFF;align=center;spacing=5;arcSize=7;perimeterSpacing=2;" parent="1" vertex="1">
          <mxGeometry x="795" y="70" width="150" height="60" as="geometry" />
        </mxCell>
        <mxCell id="1768" value="" style="edgeStyle=none;rounded=0;jumpStyle=none;html=1;shadow=0;labelBackgroundColor=none;startArrow=none;startFill=0;endArrow=classic;endFill=1;jettySize=auto;orthogonalLoop=1;strokeColor=#F08705;strokeWidth=3;fontFamily=Helvetica;fontSize=14;fontColor=#FFFFFF;spacing=5;" parent="1" source="1764" target="1767" edge="1">
          <mxGeometry relative="1" as="geometry" />
        </mxCell>
        <mxCell id="1769" value="[資格]&lt;br&gt;Cloud Practitioner" style="rounded=1;whiteSpace=wrap;html=1;shadow=0;labelBackgroundColor=none;strokeColor=none;strokeWidth=3;fillColor=#f5af58;fontFamily=Helvetica;fontSize=14;fontColor=#FFFFFF;align=center;spacing=5;arcSize=7;perimeterSpacing=2;" parent="1" vertex="1">
          <mxGeometry x="240" y="200.5" width="150" height="60" as="geometry" />
        </mxCell>
        <mxCell id="1770" value="" style="edgeStyle=none;rounded=0;jumpStyle=none;html=1;shadow=0;labelBackgroundColor=none;startArrow=none;startFill=0;endArrow=classic;endFill=1;jettySize=auto;orthogonalLoop=1;strokeColor=#F08705;strokeWidth=3;fontFamily=Helvetica;fontSize=14;fontColor=#FFFFFF;spacing=5;" parent="1" source="1764" target="1769" edge="1">
          <mxGeometry relative="1" as="geometry" />
        </mxCell>
        <mxCell id="1771" value="[プログラミング言語]&lt;br&gt;Python" style="rounded=1;whiteSpace=wrap;html=1;shadow=0;labelBackgroundColor=none;strokeWidth=3;fontFamily=Helvetica;fontSize=14;fontColor=#FFFFFF;align=center;spacing=5;fontStyle=1;arcSize=7;perimeterSpacing=2;fillColor=#6666FF;gradientDirection=south;gradientColor=#FFFF66;strokeColor=#9999FF;" parent="1" vertex="1">
          <mxGeometry x="795" y="385.4999999999999" width="150" height="60" as="geometry" />
        </mxCell>
        <mxCell id="1776" value="[ツール]&lt;br&gt;pyenv&lt;br&gt;(バージョン管理)" style="rounded=1;whiteSpace=wrap;html=1;shadow=0;labelBackgroundColor=none;strokeColor=none;strokeWidth=3;fontFamily=Helvetica;fontSize=14;fontColor=#FFFFFF;align=center;spacing=5;fontStyle=0;arcSize=7;perimeterSpacing=2;fillColor=#CC99FF;" parent="1" vertex="1">
          <mxGeometry x="945" y="570.5" width="150" height="60" as="geometry" />
        </mxCell>
        <mxCell id="1777" value="" style="edgeStyle=none;rounded=1;jumpStyle=none;html=1;shadow=0;labelBackgroundColor=none;startArrow=none;startFill=0;jettySize=auto;orthogonalLoop=1;strokeWidth=3;fontFamily=Helvetica;fontSize=14;fontColor=#FFFFFF;spacing=5;fontStyle=1;fillColor=#b0e3e6;strokeColor=#B266FF;" parent="1" source="1771" target="1776" edge="1">
          <mxGeometry relative="1" as="geometry" />
        </mxCell>
        <mxCell id="Q4df0H-JlEwPYiJTYYAv-1793" style="edgeStyle=orthogonalEdgeStyle;rounded=0;orthogonalLoop=1;jettySize=auto;html=1;dashed=1;strokeColor=#330066;fontColor=#333333;" parent="1" source="1761" target="1776" edge="1">
          <mxGeometry relative="1" as="geometry" />
        </mxCell>
        <mxCell id="Q4df0H-JlEwPYiJTYYAv-1795" style="edgeStyle=orthogonalEdgeStyle;rounded=0;orthogonalLoop=1;jettySize=auto;html=1;exitX=0.25;exitY=1;exitDx=0;exitDy=0;entryX=1;entryY=0.5;entryDx=0;entryDy=0;dashed=1;strokeColor=#330066;fontColor=#333333;" parent="1" source="1761" target="1756" edge="1">
          <mxGeometry relative="1" as="geometry">
            <Array as="points">
              <mxPoint x="757" y="660" />
              <mxPoint x="680" y="660" />
              <mxPoint x="680" y="710" />
            </Array>
          </mxGeometry>
        </mxCell>
        <mxCell id="1761" value="[ツール]&lt;br&gt;ターミナル" style="rounded=1;whiteSpace=wrap;html=1;shadow=0;labelBackgroundColor=none;strokeColor=none;strokeWidth=3;fillColor=#64bbe2;fontFamily=Helvetica;fontSize=14;fontColor=#FFFFFF;align=center;spacing=5;arcSize=7;perimeterSpacing=2;" parent="1" vertex="1">
          <mxGeometry x="720" y="570.5" width="150" height="60" as="geometry" />
        </mxCell>
        <mxCell id="Q4df0H-JlEwPYiJTYYAv-1788" value="" style="edgeStyle=none;rounded=0;jumpStyle=none;html=1;shadow=0;labelBackgroundColor=none;startArrow=none;startFill=0;endArrow=classic;endFill=1;jettySize=auto;orthogonalLoop=1;strokeColor=#1699D3;strokeWidth=3;fontFamily=Helvetica;fontSize=14;fontColor=#FFFFFF;spacing=5;exitX=0.5;exitY=1;exitDx=0;exitDy=0;" parent="1" source="1761" target="Q4df0H-JlEwPYiJTYYAv-1789" edge="1">
          <mxGeometry relative="1" as="geometry">
            <mxPoint x="775" y="670" as="sourcePoint" />
          </mxGeometry>
        </mxCell>
        <mxCell id="Q4df0H-JlEwPYiJTYYAv-1789" value="[規格]&lt;br&gt;UNIX" style="rounded=1;whiteSpace=wrap;html=1;shadow=0;labelBackgroundColor=none;strokeColor=none;strokeWidth=3;fillColor=#64bbe2;fontFamily=Helvetica;fontSize=14;fontColor=#FFFFFF;align=center;spacing=5;arcSize=7;perimeterSpacing=2;" parent="1" vertex="1">
          <mxGeometry x="720" y="680" width="150" height="60" as="geometry" />
        </mxCell>
        <mxCell id="1762" value="&lt;span style=&quot;font-weight: normal&quot;&gt;&lt;span&gt;[ツール]&lt;/span&gt;&lt;br&gt;&lt;span&gt;VSCode&lt;/span&gt;&lt;/span&gt;" style="rounded=1;whiteSpace=wrap;html=1;shadow=0;labelBackgroundColor=none;strokeColor=none;strokeWidth=3;fillColor=#64bbe2;fontFamily=Helvetica;fontSize=14;fontColor=#FFFFFF;align=center;spacing=5;arcSize=7;perimeterSpacing=2;fontStyle=1" parent="1" vertex="1">
          <mxGeometry x="495" y="680" width="150" height="60" as="geometry" />
        </mxCell>
        <mxCell id="Q4df0H-JlEwPYiJTYYAv-1797" value="[ポートフォリオ]&lt;br&gt;*" style="rounded=1;whiteSpace=wrap;html=1;shadow=0;labelBackgroundColor=none;strokeColor=none;strokeWidth=3;fontFamily=Helvetica;fontSize=14;fontColor=#FFFFFF;align=center;spacing=5;fontStyle=0;arcSize=7;perimeterSpacing=2;fillColor=#CC99FF;" parent="1" vertex="1">
          <mxGeometry x="795" y="200.5" width="150" height="60" as="geometry" />
        </mxCell>
        <mxCell id="Q4df0H-JlEwPYiJTYYAv-1798" value="" style="edgeStyle=none;rounded=1;jumpStyle=none;html=1;shadow=0;labelBackgroundColor=none;startArrow=none;startFill=0;jettySize=auto;orthogonalLoop=1;strokeWidth=3;fontFamily=Helvetica;fontSize=14;fontColor=#FFFFFF;spacing=5;fontStyle=1;fillColor=#b0e3e6;strokeColor=#B266FF;exitX=0.5;exitY=0;exitDx=0;exitDy=0;" parent="1" source="1771" target="Q4df0H-JlEwPYiJTYYAv-1797" edge="1">
          <mxGeometry relative="1" as="geometry">
            <mxPoint x="945" y="254" as="sourcePoint" />
          </mxGeometry>
        </mxCell>
        <mxCell id="Q4df0H-JlEwPYiJTYYAv-1818" style="edgeStyle=orthogonalEdgeStyle;rounded=0;orthogonalLoop=1;jettySize=auto;html=1;entryX=0.5;entryY=0;entryDx=0;entryDy=0;dashed=1;fontColor=#333333;" parent="1" source="Q4df0H-JlEwPYiJTYYAv-1809" target="1765" edge="1">
          <mxGeometry relative="1" as="geometry">
            <Array as="points">
              <mxPoint x="55" y="20" />
              <mxPoint x="570" y="20" />
            </Array>
          </mxGeometry>
        </mxCell>
        <mxCell id="Q4df0H-JlEwPYiJTYYAv-1819" style="edgeStyle=orthogonalEdgeStyle;rounded=0;orthogonalLoop=1;jettySize=auto;html=1;entryX=1;entryY=0.5;entryDx=0;entryDy=0;dashed=1;fontColor=#333333;" parent="1" source="Q4df0H-JlEwPYiJTYYAv-1809" target="Q4df0H-JlEwPYiJTYYAv-1797" edge="1">
          <mxGeometry relative="1" as="geometry">
            <Array as="points">
              <mxPoint x="55" y="20" />
              <mxPoint x="1010" y="20" />
              <mxPoint x="1010" y="231" />
            </Array>
          </mxGeometry>
        </mxCell>
        <mxCell id="Q4df0H-JlEwPYiJTYYAv-1809" value="[ポートフォリオ]&lt;br&gt;バックエンドAPI" style="rounded=1;whiteSpace=wrap;html=1;shadow=0;labelBackgroundColor=none;strokeColor=none;strokeWidth=3;fontFamily=Helvetica;fontSize=14;fontColor=#FFFFFF;align=center;spacing=5;fontStyle=0;arcSize=7;perimeterSpacing=2;fillColor=#330066;" parent="1" vertex="1">
          <mxGeometry x="-20" y="200.5" width="150" height="60" as="geometry" />
        </mxCell>
        <mxCell id="Q4df0H-JlEwPYiJTYYAv-1810" value="" style="edgeStyle=none;rounded=1;jumpStyle=none;html=1;shadow=0;labelBackgroundColor=none;startArrow=none;startFill=0;jettySize=auto;orthogonalLoop=1;strokeWidth=3;fontFamily=Helvetica;fontSize=14;fontColor=#FFFFFF;spacing=5;fontStyle=1;fillColor=#b0e3e6;strokeColor=#1A1A1A;exitX=0.5;exitY=0;exitDx=0;exitDy=0;entryX=0.5;entryY=1;entryDx=0;entryDy=0;" parent="1" source="1754" target="Q4df0H-JlEwPYiJTYYAv-1809" edge="1">
          <mxGeometry relative="1" as="geometry">
            <mxPoint x="161" y="360" as="sourcePoint" />
            <mxPoint x="80" y="360" as="targetPoint" />
          </mxGeometry>
        </mxCell>
        <mxCell id="Q4df0H-JlEwPYiJTYYAv-1812" value="この2つの項目の達成がゴール" style="shape=callout;whiteSpace=wrap;html=1;perimeter=calloutPerimeter;strokeColor=#000000;fontColor=#333333;fillColor=#FFFFFF;" parent="1" vertex="1">
          <mxGeometry x="175" y="80" width="190" height="90" as="geometry" />
        </mxCell>
        <mxCell id="Q4df0H-JlEwPYiJTYYAv-1821" value="" style="ellipse;whiteSpace=wrap;html=1;fillColor=#1ba1e2;opacity=50;strokeColor=#006EAF;fontColor=#ffffff;" parent="1" vertex="1">
          <mxGeometry x="1180" y="320" width="200" height="200" as="geometry" />
        </mxCell>
        <mxCell id="Q4df0H-JlEwPYiJTYYAv-1822" value="" style="ellipse;whiteSpace=wrap;html=1;fillColor=#ffe6cc;opacity=50;strokeColor=#d79b00;" parent="1" vertex="1">
          <mxGeometry x="1270" y="314" width="200" height="200" as="geometry" />
        </mxCell>
        <mxCell id="Q4df0H-JlEwPYiJTYYAv-1823" value="Java" style="text;html=1;align=center;verticalAlign=middle;resizable=0;points=[];autosize=1;fontSize=18;fontColor=#3333FF;labelBackgroundColor=none;" parent="1" vertex="1">
          <mxGeometry x="1200" y="385.5" width="50" height="30" as="geometry" />
        </mxCell>
        <mxCell id="Q4df0H-JlEwPYiJTYYAv-1824" value="C#" style="text;html=1;align=center;verticalAlign=middle;resizable=0;points=[];autosize=1;fontSize=18;fontColor=#3333FF;" parent="1" vertex="1">
          <mxGeometry x="1205" y="440" width="40" height="30" as="geometry" />
        </mxCell>
        <mxCell id="Q4df0H-JlEwPYiJTYYAv-1826" value="JavaScript" style="text;html=1;align=center;verticalAlign=middle;resizable=0;points=[];autosize=1;fontSize=18;fontColor=#EA6B66;" parent="1" vertex="1">
          <mxGeometry x="1280" y="385.5" width="100" height="30" as="geometry" />
        </mxCell>
        <mxCell id="Q4df0H-JlEwPYiJTYYAv-1827" value="Python" style="text;html=1;align=center;verticalAlign=middle;resizable=0;points=[];autosize=1;fontSize=18;fontColor=#EA6B66;" parent="1" vertex="1">
          <mxGeometry x="1295" y="440" width="70" height="30" as="geometry" />
        </mxCell>
        <mxCell id="Q4df0H-JlEwPYiJTYYAv-1828" value="toB" style="text;html=1;align=center;verticalAlign=middle;resizable=0;points=[];autosize=1;fontSize=26;fontColor=#333333;" parent="1" vertex="1">
          <mxGeometry x="1255" y="275" width="50" height="40" as="geometry" />
        </mxCell>
        <mxCell id="Q4df0H-JlEwPYiJTYYAv-1830" value="toC" style="text;html=1;align=center;verticalAlign=middle;resizable=0;points=[];autosize=1;fontSize=26;fontColor=#333333;" parent="1" vertex="1">
          <mxGeometry x="1340" y="275" width="60" height="40" as="geometry" />
        </mxCell>
        <mxCell id="Q4df0H-JlEwPYiJTYYAv-1831" value="Ruby" style="text;html=1;align=center;verticalAlign=middle;resizable=0;points=[];autosize=1;fontSize=18;fontColor=#EA6B66;" parent="1" vertex="1">
          <mxGeometry x="1395" y="420.5" width="60" height="30" as="geometry" />
        </mxCell>
        <mxCell id="Q4df0H-JlEwPYiJTYYAv-1832" value="Swift" style="text;html=1;align=center;verticalAlign=middle;resizable=0;points=[];autosize=1;fontSize=18;fontColor=#3333FF;" parent="1" vertex="1">
          <mxGeometry x="1395" y="350.5" width="50" height="30" as="geometry" />
        </mxCell>
        <mxCell id="Q4df0H-JlEwPYiJTYYAv-1833" value="Kotlin" style="text;html=1;align=center;verticalAlign=middle;resizable=0;points=[];autosize=1;fontSize=18;fontColor=#3333FF;" parent="1" vertex="1">
          <mxGeometry x="1395" y="384" width="60" height="30" as="geometry" />
        </mxCell>
        <mxCell id="Q4df0H-JlEwPYiJTYYAv-1834" value="Go" style="text;html=1;align=center;verticalAlign=middle;resizable=0;points=[];autosize=1;fontSize=18;fontColor=#3333FF;" parent="1" vertex="1">
          <mxGeometry x="1395" y="460" width="40" height="30" as="geometry" />
        </mxCell>
        <mxCell id="Q4df0H-JlEwPYiJTYYAv-1835" value="動的型付け言語" style="text;html=1;align=center;verticalAlign=middle;resizable=0;points=[];autosize=1;fontSize=15;fontColor=#EA6B66;strokeColor=#000000;fontStyle=1" parent="1" vertex="1">
          <mxGeometry x="1270" y="550" width="120" height="20" as="geometry" />
        </mxCell>
        <mxCell id="Q4df0H-JlEwPYiJTYYAv-1838" value="&lt;font color=&quot;#3333ff&quot; style=&quot;font-size: 15px;&quot;&gt;静的型付け言語&lt;/font&gt;" style="text;html=1;align=center;verticalAlign=middle;resizable=0;points=[];autosize=1;fontSize=15;fontColor=#EA6B66;strokeColor=#000000;fontStyle=1" parent="1" vertex="1">
          <mxGeometry x="1270" y="570" width="120" height="20" as="geometry" />
        </mxCell>
      </root>
    </mxGraphModel>
  </diagram>
</mxfile>
